<svg width="500" height="143" viewBox="0 0 500 143" fill="none" xmlns="http://www.w3.org/2000/svg">
<g clip-path="url(#clip0_1145_10661)">
<path d="M172.9 79.01C168.6 76.71 166.4 74.71 166.4 72.01C166.4 68.61 169.5 66.41 174.3 66.41C179.9 66.41 184.9 68.71 184.9 68.71L188.8 56.71C188.8 56.71 185.2 53.91 174.6 53.91C159.8 53.91 149.5 62.41 149.5 74.31C149.5 81.11 154.3 86.21 160.7 89.91C165.9 92.81 167.7 94.91 167.7 98.01C167.7 101.11 165.1 103.81 160.3 103.81C153.2 103.81 146.4 100.11 146.4 100.11L142.2 112.11C142.2 112.11 148.4 116.31 158.9 116.31C174.1 116.31 185.1 108.81 185.1 95.31C185 88.01 179.5 82.81 172.9 79.01Z" fill="white" style="fill:white;fill-opacity:1;"/>
<path d="M233.5 53.71C226 53.71 220.1 57.31 215.6 62.71L215.4 62.61L221.9 28.61H205L188.5 115.21H205.4L211 85.61C213.2 74.41 219 67.51 224.4 67.51C228.2 67.51 229.7 70.11 229.7 73.81C229.7 76.11 229.5 79.01 229 81.31L222.6 115.21H239.5L246.1 80.21C246.8 76.51 247.3 72.11 247.3 69.11C247.4 59.51 242.4 53.71 233.5 53.71Z" fill="white" style="fill:white;fill-opacity:1;"/>
<path d="M285.7 53.71C265.3 53.71 251.8 72.11 251.8 92.61C251.8 105.71 259.9 116.31 275.1 116.31C295.1 116.31 308.6 98.41 308.6 77.41C308.7 65.31 301.6 53.71 285.7 53.71ZM277.4 103.41C271.6 103.41 269.2 98.51 269.2 92.31C269.2 82.61 274.2 66.81 283.4 66.81C289.4 66.81 291.4 72.01 291.4 77.01C291.4 87.41 286.3 103.41 277.4 103.41Z" fill="white" style="fill:white;fill-opacity:1;"/>
<path d="M352 53.71C340.6 53.71 334.1 63.81 334.1 63.81H333.9L334.9 54.71H319.9C319.2 60.81 317.8 70.21 316.5 77.21L304.7 139.21H321.6L326.3 114.11H326.7C326.7 114.11 330.2 116.31 336.6 116.31C356.5 116.31 369.5 95.91 369.5 75.31C369.5 63.91 364.4 53.71 352 53.71ZM335.8 103.61C331.4 103.61 328.8 101.11 328.8 101.11L331.6 85.31C333.6 74.71 339.1 67.71 345 67.71C350.2 67.71 351.8 72.51 351.8 77.01C351.8 88.01 345.3 103.61 335.8 103.61Z" fill="white" style="fill:white;fill-opacity:1;"/>
<path d="M393.7 29.41C388.3 29.41 384 33.71 384 39.21C384 44.21 387.2 47.71 392 47.71H392.2C397.5 47.71 402 44.11 402.1 37.91C402.1 33.01 398.8 29.41 393.7 29.41Z" fill="white" style="fill:white;fill-opacity:1;"/>
<path d="M370 115.11H386.9L398.4 55.11H381.4L370 115.11Z" fill="white" style="fill:white;fill-opacity:1;"/>
<path d="M441.5 55.01H429.7L430.3 52.21C431.3 46.41 434.7 41.31 440.4 41.31C443.4 41.31 445.8 42.21 445.8 42.21L449.1 28.91C449.1 28.91 446.2 27.41 439.9 27.41C433.6 27.41 427.9 29.11 423.3 33.01C417.5 37.91 414.8 45.01 413.5 52.21L413 55.01H405.1L402.6 67.81H410.5L401.5 115.21H418.4L427.4 67.81H439.1L441.5 55.01Z" fill="white" style="fill:white;fill-opacity:1;"/>
<path d="M482.3 55.11C482.3 55.11 471.7 81.81 467 96.41H466.8C466.5 91.71 462.6 55.11 462.6 55.11H444.8L455 110.21C455.2 111.41 455.1 112.21 454.6 113.01C452.6 116.81 449.3 120.51 445.4 123.21C442.2 125.51 438.6 127.01 435.8 128.01L440.5 142.41C443.9 141.71 451.1 138.81 457.1 133.21C464.8 126.01 472 114.81 479.3 99.61L500 55.11H482.3Z" fill="white" style="fill:white;fill-opacity:1;"/>
<path d="M107.4 26.71C107.3 26.01 106.7 25.61 106.2 25.61C105.7 25.61 95.8 25.41 95.8 25.41C95.8 25.41 87.5 17.41 86.7 16.51C85.9 15.71 84.3 15.91 83.7 16.11C83.7 16.11 82.1 16.61 79.5 17.41C79.1 16.01 78.4 14.31 77.5 12.51C74.6 6.91001 70.2 3.91001 65 3.91001C64.6 3.91001 64.3 3.91001 63.9 4.01001C63.7 3.81001 63.6 3.61001 63.4 3.51001C61.1 1.11001 58.2 -0.0899866 54.7 1.34236e-05C48 0.200013 41.3 5.10001 35.8 13.7C32 19.8 29.1 27.4 28.2 33.3C20.5 35.7 15.1 37.4 14.9 37.4C11 38.6 10.9 38.7 10.4 42.4C10.2 45.2 0 124.1 0 124.1L85.6 138.9L122.7 129.7C122.6 129.7 107.5 27.4 107.4 26.7V26.71ZM75.2 18.81C73.2 19.41 71 20.11 68.6 20.91C68.6 17.51 68.1 12.71 66.6 8.71001C71.7 9.51001 74.2 15.31 75.2 18.81ZM64.1 22.21C59.6 23.61 54.7 25.11 49.8 26.61C51.2 21.31 53.8 16.11 57 12.61C58.2 11.31 59.9 9.91001 61.8 9.11001C63.8 13.01 64.2 18.51 64.1 22.21ZM54.9 4.51001C56.5 4.51001 57.8 4.81001 58.9 5.61001C57.1 6.51001 55.3 7.91001 53.7 9.71001C49.4 14.31 46.1 21.41 44.8 28.31C40.7 29.61 36.7 30.81 33.1 31.91C35.5 21.01 44.6 4.81001 54.9 4.51001Z" fill="#95BF47" style="fill:#95BF47;fill:color(display-p3 0.5843 0.7490 0.2784);fill-opacity:1;"/>
<path d="M106.2 25.61C105.7 25.61 95.8 25.41 95.8 25.41C95.8 25.41 87.5 17.41 86.7 16.51C86.4 16.21 86 16.01 85.6 16.01V138.91L122.7 129.71C122.7 129.71 107.6 27.41 107.5 26.71C107.3 26.01 106.7 25.61 106.2 25.61Z" fill="#5E8E3E" style="fill:#5E8E3E;fill:color(display-p3 0.3686 0.5569 0.2431);fill-opacity:1;"/>
<path d="M65 44.71L60.7001 60.81C60.7001 60.81 55.9001 58.61 50.2001 59.01C41.8001 59.51 41.8 64.81 41.8 66.11C42.3 73.31 61.2001 74.91 62.3 91.81C63.1 105.11 55.3 114.21 43.9001 114.91C30.3001 115.61 22.8 107.61 22.8 107.61L25.7001 95.31C25.7001 95.31 33.3 101.01 39.3 100.61C43.2 100.41 44.7001 97.11 44.5 94.91C43.9 85.51 28.5 86.11 27.5 70.61C26.7 57.61 35.2001 44.51 54 43.31C61.3 42.81 65 44.71 65 44.71Z" fill="white" style="fill:white;fill-opacity:1;"/>
</g>
<defs>
<clipPath id="clip0_1145_10661">
<rect width="500" height="142.54" fill="white" style="fill:white;fill-opacity:1;"/>
</clipPath>
</defs>
</svg>
